<svg width="14" height="11" viewBox="0 0 14 11" fill="none" xmlns="http://www.w3.org/2000/svg">
<path d="M0 8.55553C0 8.96809 0.163888 9.36375 0.455612 9.65547C0.747335 9.9472 1.143 10.1111 1.55556 10.1111H12.4444C12.857 10.1111 13.2527 9.9472 13.5444 9.65547C13.8361 9.36375 14 8.96809 14 8.55553V6.61108H0V8.55553Z" fill="#138808"/>
<path d="M14 3.5V1.55556C14 1.143 13.8361 0.747335 13.5444 0.455612C13.2527 0.163888 12.857 0 12.4444 0H1.55556C1.143 0 0.747335 0.163888 0.455612 0.455612C0.163888 0.747335 0 1.143 0 1.55556L0 3.5H14Z" fill="#FF9933"/>
<path d="M0 3.37048H14V6.74098H0V3.37048Z" fill="#F7F7F7"/>
<path d="M7 6.61111C7.85911 6.61111 8.55556 5.91467 8.55556 5.05556C8.55556 4.19645 7.85911 3.5 7 3.5C6.14089 3.5 5.44444 4.19645 5.44444 5.05556C5.44444 5.91467 6.14089 6.61111 7 6.61111Z" fill="#000080"/>
<path d="M7 6.36804C7.72487 6.36804 8.3125 5.78042 8.3125 5.05554C8.3125 4.33067 7.72487 3.74304 7 3.74304C6.27513 3.74304 5.6875 4.33067 5.6875 5.05554C5.6875 5.78042 6.27513 6.36804 7 6.36804Z" fill="#F7F7F7"/>
<path d="M7.03889 4.56949L7 4.82227L6.96111 4.56949L7 3.81116L7.03889 4.56949ZM6.678 3.85355L6.83667 4.59594L6.93972 4.83005L6.91172 4.5761L6.678 3.85355ZM6.37778 3.97799L6.72311 4.65388L6.88333 4.85338L6.79078 4.61499L6.37778 3.97799ZM6.11994 4.17555L6.62861 4.73944L6.83511 4.89071L6.68383 4.68421L6.11994 4.17555ZM5.92239 4.43338L6.55939 4.84638L6.79778 4.93894L6.59828 4.77871L5.92239 4.43338ZM5.79794 4.7336L6.5205 4.96732L6.77444 4.99532L6.54033 4.89227L5.79794 4.7336ZM5.75556 5.0556L6.51389 5.09449L6.76667 5.0556L6.51389 5.01671L5.75556 5.0556ZM5.79794 5.3776L6.54033 5.21894L6.77444 5.11588L6.5205 5.14388L5.79794 5.3776ZM5.92239 5.67782L6.59828 5.33249L6.79778 5.17227L6.55939 5.26482L5.92239 5.67782ZM6.11994 5.93566L6.68383 5.42699L6.83511 5.22049L6.62861 5.37177L6.11994 5.93566ZM6.37778 6.13321L6.79078 5.49621L6.88333 5.25782L6.72311 5.45732L6.37778 6.13321ZM6.678 6.25766L6.91172 5.5351L6.93972 5.28116L6.83667 5.51527L6.678 6.25766ZM7 6.30005L7.03889 5.54171L7 5.28894L6.96111 5.54171L7 6.30005ZM7.322 6.25766L7.16333 5.51527L7.06028 5.28116L7.08828 5.5351L7.322 6.25766ZM7.62222 6.13321L7.27689 5.45732L7.11667 5.25782L7.20922 5.49621L7.62222 6.13321ZM7.88006 5.93566L7.37139 5.37177L7.16489 5.22049L7.31617 5.42699L7.88006 5.93566ZM8.07761 5.67782L7.44061 5.26482L7.20222 5.17227L7.40172 5.33249L8.07761 5.67782ZM8.20205 5.3776L7.4795 5.14388L7.22556 5.11588L7.45967 5.21894L8.20205 5.3776ZM8.24444 5.0556L7.48611 5.01671L7.23333 5.0556L7.48611 5.09449L8.24444 5.0556ZM8.20205 4.7336L7.45967 4.89227L7.22556 4.99532L7.4795 4.96732L8.20205 4.7336ZM8.07761 4.43338L7.40172 4.77871L7.20222 4.93894L7.44061 4.84638L8.07761 4.43338ZM7.88006 4.17555L7.31617 4.68421L7.16489 4.89071L7.37139 4.73944L7.88006 4.17555ZM7.62222 3.97799L7.20922 4.61499L7.11667 4.85338L7.27689 4.65388L7.62222 3.97799ZM7.322 3.85355L7.08828 4.5761L7.06028 4.83005L7.16333 4.59594L7.322 3.85355Z" fill="#6666B3"/>
<path d="M6.82889 3.83402C6.87184 3.83402 6.90667 3.7992 6.90667 3.75624C6.90667 3.71329 6.87184 3.67847 6.82889 3.67847C6.78593 3.67847 6.75111 3.71329 6.75111 3.75624C6.75111 3.7992 6.78593 3.83402 6.82889 3.83402Z" fill="#000080"/>
<path d="M6.49833 3.92277C6.54129 3.92277 6.57611 3.88795 6.57611 3.84499C6.57611 3.80203 6.54129 3.76721 6.49833 3.76721C6.45538 3.76721 6.42056 3.80203 6.42056 3.84499C6.42056 3.88795 6.45538 3.92277 6.49833 3.92277Z" fill="#000080"/>
<path d="M6.202 4.09342C6.24496 4.09342 6.27978 4.0586 6.27978 4.01564C6.27978 3.97269 6.24496 3.93787 6.202 3.93787C6.15904 3.93787 6.12422 3.97269 6.12422 4.01564C6.12422 4.0586 6.15904 4.09342 6.202 4.09342Z" fill="#000080"/>
<path d="M5.96011 4.33537C6.00307 4.33537 6.03789 4.30054 6.03789 4.25759C6.03789 4.21463 6.00307 4.17981 5.96011 4.17981C5.91716 4.17981 5.88233 4.21463 5.88233 4.25759C5.88233 4.30054 5.91716 4.33537 5.96011 4.33537Z" fill="#000080"/>
<path d="M5.78939 4.63163C5.83234 4.63163 5.86717 4.59681 5.86717 4.55385C5.86717 4.5109 5.83234 4.47607 5.78939 4.47607C5.74643 4.47607 5.71161 4.5109 5.71161 4.55385C5.71161 4.59681 5.74643 4.63163 5.78939 4.63163Z" fill="#000080"/>
<path d="M5.70072 4.9622C5.74368 4.9622 5.7785 4.92737 5.7785 4.88442C5.7785 4.84146 5.74368 4.80664 5.70072 4.80664C5.65777 4.80664 5.62294 4.84146 5.62294 4.88442C5.62294 4.92737 5.65777 4.9622 5.70072 4.9622Z" fill="#000080"/>
<path d="M5.70072 5.30448C5.74368 5.30448 5.7785 5.26966 5.7785 5.2267C5.7785 5.18375 5.74368 5.14893 5.70072 5.14893C5.65777 5.14893 5.62294 5.18375 5.62294 5.2267C5.62294 5.26966 5.65777 5.30448 5.70072 5.30448Z" fill="#000080"/>
<path d="M5.78939 5.63505C5.83234 5.63505 5.86717 5.60023 5.86717 5.55727C5.86717 5.51431 5.83234 5.47949 5.78939 5.47949C5.74643 5.47949 5.71161 5.51431 5.71161 5.55727C5.71161 5.60023 5.74643 5.63505 5.78939 5.63505Z" fill="#000080"/>
<path d="M5.96011 5.93131C6.00307 5.93131 6.03789 5.89649 6.03789 5.85353C6.03789 5.81058 6.00307 5.77576 5.96011 5.77576C5.91716 5.77576 5.88233 5.81058 5.88233 5.85353C5.88233 5.89649 5.91716 5.93131 5.96011 5.93131Z" fill="#000080"/>
<path d="M6.202 6.17313C6.24496 6.17313 6.27978 6.13831 6.27978 6.09536C6.27978 6.0524 6.24496 6.01758 6.202 6.01758C6.15904 6.01758 6.12422 6.0524 6.12422 6.09536C6.12422 6.13831 6.15904 6.17313 6.202 6.17313Z" fill="#000080"/>
<path d="M6.49833 6.34391C6.54129 6.34391 6.57611 6.30909 6.57611 6.26613C6.57611 6.22318 6.54129 6.18835 6.49833 6.18835C6.45538 6.18835 6.42056 6.22318 6.42056 6.26613C6.42056 6.30909 6.45538 6.34391 6.49833 6.34391Z" fill="#000080"/>
<path d="M6.82889 6.43253C6.87184 6.43253 6.90667 6.39771 6.90667 6.35475C6.90667 6.3118 6.87184 6.27698 6.82889 6.27698C6.78593 6.27698 6.75111 6.3118 6.75111 6.35475C6.75111 6.39771 6.78593 6.43253 6.82889 6.43253Z" fill="#000080"/>
<path d="M7.17111 6.43253C7.21407 6.43253 7.24889 6.39771 7.24889 6.35475C7.24889 6.3118 7.21407 6.27698 7.17111 6.27698C7.12816 6.27698 7.09333 6.3118 7.09333 6.35475C7.09333 6.39771 7.12816 6.43253 7.17111 6.43253Z" fill="#000080"/>
<path d="M7.50167 6.34391C7.54462 6.34391 7.57944 6.30909 7.57944 6.26613C7.57944 6.22318 7.54462 6.18835 7.50167 6.18835C7.45871 6.18835 7.42389 6.22318 7.42389 6.26613C7.42389 6.30909 7.45871 6.34391 7.50167 6.34391Z" fill="#000080"/>
<path d="M7.798 6.17313C7.84096 6.17313 7.87578 6.13831 7.87578 6.09536C7.87578 6.0524 7.84096 6.01758 7.798 6.01758C7.75504 6.01758 7.72022 6.0524 7.72022 6.09536C7.72022 6.13831 7.75504 6.17313 7.798 6.17313Z" fill="#000080"/>
<path d="M8.03989 5.93131C8.08284 5.93131 8.11767 5.89649 8.11767 5.85353C8.11767 5.81058 8.08284 5.77576 8.03989 5.77576C7.99693 5.77576 7.96211 5.81058 7.96211 5.85353C7.96211 5.89649 7.99693 5.93131 8.03989 5.93131Z" fill="#000080"/>
<path d="M8.21061 5.63505C8.25357 5.63505 8.28839 5.60023 8.28839 5.55727C8.28839 5.51431 8.25357 5.47949 8.21061 5.47949C8.16766 5.47949 8.13283 5.51431 8.13283 5.55727C8.13283 5.60023 8.16766 5.63505 8.21061 5.63505Z" fill="#000080"/>
<path d="M8.29928 5.30448C8.34223 5.30448 8.37706 5.26966 8.37706 5.2267C8.37706 5.18375 8.34223 5.14893 8.29928 5.14893C8.25632 5.14893 8.2215 5.18375 8.2215 5.2267C8.2215 5.26966 8.25632 5.30448 8.29928 5.30448Z" fill="#000080"/>
<path d="M8.29928 4.9622C8.34223 4.9622 8.37706 4.92737 8.37706 4.88442C8.37706 4.84146 8.34223 4.80664 8.29928 4.80664C8.25632 4.80664 8.2215 4.84146 8.2215 4.88442C8.2215 4.92737 8.25632 4.9622 8.29928 4.9622Z" fill="#000080"/>
<path d="M8.21061 4.63163C8.25357 4.63163 8.28839 4.59681 8.28839 4.55385C8.28839 4.5109 8.25357 4.47607 8.21061 4.47607C8.16766 4.47607 8.13283 4.5109 8.13283 4.55385C8.13283 4.59681 8.16766 4.63163 8.21061 4.63163Z" fill="#000080"/>
<path d="M8.03989 4.33537C8.08284 4.33537 8.11767 4.30054 8.11767 4.25759C8.11767 4.21463 8.08284 4.17981 8.03989 4.17981C7.99693 4.17981 7.96211 4.21463 7.96211 4.25759C7.96211 4.30054 7.99693 4.33537 8.03989 4.33537Z" fill="#000080"/>
<path d="M7.798 4.09342C7.84096 4.09342 7.87578 4.0586 7.87578 4.01564C7.87578 3.97269 7.84096 3.93787 7.798 3.93787C7.75504 3.93787 7.72022 3.97269 7.72022 4.01564C7.72022 4.0586 7.75504 4.09342 7.798 4.09342Z" fill="#000080"/>
<path d="M7.50167 3.92277C7.54462 3.92277 7.57944 3.88795 7.57944 3.84499C7.57944 3.80203 7.54462 3.76721 7.50167 3.76721C7.45871 3.76721 7.42389 3.80203 7.42389 3.84499C7.42389 3.88795 7.45871 3.92277 7.50167 3.92277Z" fill="#000080"/>
<path d="M7.17111 3.83402C7.21407 3.83402 7.24889 3.7992 7.24889 3.75624C7.24889 3.71329 7.21407 3.67847 7.17111 3.67847C7.12816 3.67847 7.09333 3.71329 7.09333 3.75624C7.09333 3.7992 7.12816 3.83402 7.17111 3.83402Z" fill="#000080"/>
<path d="M7 5.40557C7.1933 5.40557 7.35 5.24887 7.35 5.05557C7.35 4.86227 7.1933 4.70557 7 4.70557C6.8067 4.70557 6.65 4.86227 6.65 5.05557C6.65 5.24887 6.8067 5.40557 7 5.40557Z" fill="#000080"/>
</svg>
